HIERARCHY
ROOT Hips
{
	OFFSET 0.000000 0.000000 0.000000 
	CHANNELS 6 Xposition Yposition Zposition Yrotation Zrotation Xrotation 
	JOINT Lumbar
	{
		OFFSET 0.000000 0.000000 0.000000 
		CHANNELS 3 Zrotation Xrotation Yrotation
		JOINT Neck
		{
			OFFSET 0.000000 0.445665 0.000000 
			CHANNELS 3 Zrotation Xrotation Yrotation
			End Site
			{
				OFFSET 0.000000 0.227535 0.000000 
			}
		}
		JOINT RightShoulder
		{
			OFFSET 0.019635 0.377685 0.194865 
			CHANNELS 3 Zrotation Xrotation Yrotation
			JOINT RightElbow
			{
				OFFSET 0.000000 -0.243375 0.000000 
				CHANNELS 2 Zrotation Yrotation
				JOINT RightWrist
				{
					OFFSET 0.000000 -0.264825 0.000000 
					CHANNELS 2 Zrotation Xrotation
					End Site
					{
						OFFSET 0.006600 -0.176220 0.000990 
					}
				}
			}
		}
		JOINT LeftShoulder
		{
			OFFSET 0.019635 0.377685 -0.194865 
			CHANNELS 3 Zrotation Xrotation Yrotation
			JOINT LeftElbow
			{
				OFFSET 0.000000 -0.243375 0.000000 
				CHANNELS 2 Zrotation Yrotation
				JOINT LeftWrist
				{
					OFFSET 0.000000 -0.264825 0.000000 
					CHANNELS 2 Zrotation Xrotation
					End Site
					{
						OFFSET 0.006600 -0.176220 -0.000990 
					}
				}
			}
		}
	}
	JOINT RightHip
	{
		OFFSET 0.052140 -0.069960 0.075570 
		CHANNELS 3 Zrotation Xrotation Yrotation
		JOINT RightKnee
		{
			OFFSET 0.000000 -0.402270 0.000000 
			CHANNELS 1 Zrotation
			JOINT RightAnkle
			{
				OFFSET 0.000000 -0.404085 0.000000 
				CHANNELS 3 Zrotation Xrotation Yrotation
				End Site
				{
					OFFSET 0.204105 -0.089430 0.008415 
				}
			}
		}
	}
	JOINT LeftHip
	{
		OFFSET 0.052140 -0.069960 -0.075570 
		CHANNELS 3 Zrotation Xrotation Yrotation
		JOINT LeftKnee
		{
			OFFSET 0.000000 -0.402270 0.000000 
			CHANNELS 1 Zrotation
			JOINT LeftAnkle
			{
				OFFSET 0.000000 -0.404085 0.000000 
				CHANNELS 3 Zrotation Xrotation Yrotation
				End Site
				{
					OFFSET 0.204105 -0.089430 -0.008415 
				}
			}
		}
	}
}
MOTION
Frames: 33
Frame Time: 0.02
0.13902 0.00749 0.3518 31.20505 -13.96816 -3.86821 34.43788 1.48231 -12.13188 -8.67563 -7.53615 -2.11993 21.7148 -24.21523 32.10967 112.03409 119.52077 22.28595 3.76672 146.00741 6.08329 -55.6242 11.09563 -77.04102 3.05829 6.08839 24.38446 5.22612 -15.78003 -17.91803 -6.4682 -2.63478 -3.50852 42.65645 17.01891 6.06673 -28.81905 -10.48714 2.12023 3.44872
0.13955 0.0076 0.35305 30.46427 -13.96028 -3.56435 34.42383 1.58643 -11.79104 -8.87327 -6.98739 -2.11993 20.23089 -24.18937 31.09102 112.22227 116.66386 21.54409 3.30738 147.18342 9.10574 -55.6236 10.39876 -78.54097 1.64886 5.37052 24.36627 5.12113 -15.59614 -17.79075 -6.4717 -2.58251 -3.48328 42.78634 16.92396 6.16319 -28.8423 -10.39061 2.08447 3.42776
0.13999 0.00781 0.35369 29.83345 -13.97802 -3.23676 34.42982 1.7291 -11.49791 -9.04273 -6.34931 -2.11993 18.62679 -24.22881 30.0278 112.42476 113.2374 20.74674 2.74736 147.62849 12.98243 -55.61218 10.24444 -79.96494 1.05994 4.37205 24.36514 4.95541 -15.35226 -17.67346 -6.4853 -2.54782 -3.4662 42.86497 16.70453 6.38572 -28.60841 -10.26031 2.02528 3.39436
0.14048 0.00797 0.35456 29.17108 -13.9818 -2.92695 34.42625 1.85313 -11.19771 -9.22742 -5.74914 -2.11993 17.07213 -24.24377 28.98568 112.6265 110.26156 20.04048 2.2608 148.33694 16.48473 -55.60416 9.87087 -81.50229 0.13883 3.48703 24.3516 4.81697 -15.15841 -17.55561 -6.49338 -2.50456 -3.4452 42.96194 16.53909 6.55931 -28.47735 -10.14641 1.9791 3.36777
0.14091 0.00816 0.35559 28.42189 -13.99877 -2.58485 34.42652 1.98278 -10.83011 -9.3986 -5.14887 -2.11993 15.53366 -24.23913 27.9364 112.80328 106.46296 19.04594 1.65608 149.3428 19.96188 -55.59496 9.38566 -82.76233 -0.98382 2.64961 24.36114 4.67598 -14.87616 -17.4209 -6.50507 -2.46251 -3.42451 43.0834 16.38353 6.70081 -28.40656 -10.02657 1.92334 3.33642
0.14146 0.00831 0.35616 27.88457 -13.9933 -2.30621 34.42301 2.10956 -10.61638 -9.59252 -4.53283 -2.11993 13.93665 -24.29164 26.89458 113.03553 104.23025 18.63658 1.27148 149.53907 23.67359 -55.58779 9.2627 -84.55614 -1.47291 1.65828 24.3257 4.52801 -14.7588 -17.32404 -6.51178 -2.42294 -3.40549 43.14056 16.17817 6.93532 -28.1502 -9.91198 1.88153 3.31185
0.1424 0.00833 0.35565 27.88825 -13.91657 -2.19908 34.40126 2.21845 -10.81617 -9.85523 -3.88599 -2.11993 12.18953 -24.46463 25.86321 113.41945 106.67774 19.93047 1.55071 147.84698 27.91924 -55.59444 9.98854 -87.89209 -0.50723 0.21909 24.15751 4.36736 -15.13737 -17.32494 -6.50194 -2.38145 -3.38692 43.02955 15.86609 7.42763 -27.42668 -9.81618 1.88766 3.31058
0.14347 0.00831 0.3547 28.1059 -13.81645 -2.15861 34.37503 2.32292 -11.1698 -10.14198 -3.23042 -2.11993 10.39245 -24.69608 24.84546 113.85824 110.68413 21.80332 2.04959 145.33409 32.34811 -55.60104 11.06894 -91.74756 1.08659 -1.34827 23.94372 4.20355 -15.67902 -17.36431 -6.48683 -2.34276 -3.37016 42.85575 15.50821 8.0033 -26.52839 -9.72778 1.90798 3.31628
0.14448 0.0083 0.35393 28.23748 -13.72849 -2.09424 34.35273 2.42984 -11.45373 -10.4194 -2.58527 -2.11993 8.62935 -24.91433 23.83493 114.27104 113.84045 23.36576 2.42804 143.0893 36.6299 -55.60853 11.99066 -95.33023 2.4596 -2.79579 23.75314 4.04736 -16.12736 -17.38888 -6.4744 -2.3059 -3.35406 42.7121 15.1713 8.51985 -25.72106 -9.63873 1.91931 3.31772
0.14551 0.00832 0.35325 28.32436 -13.63493 -2.00233 34.3241 2.53694 -11.73875 -10.69095 -1.90609 -2.11993 6.81061 -25.07916 22.76441 114.68969 117.57776 25.12769 2.89024 141.26636 41.22012 -55.62259 12.89601 -99.08176 3.59484 -4.51102 23.55275 3.86385 -16.65195 -17.40259 -6.46115 -2.25671 -3.33209 42.55949 14.82961 9.1302 -24.85532 -9.53689 1.94037 3.32325
0.14653 0.00827 0.35226 28.55531 -13.54725 -1.98352 34.30619 2.64126 -12.05688 -10.97842 -1.30125 -2.11993 5.10221 -25.36744 21.82488 115.10783 120.47819 26.6098 3.23109 138.37364 45.18925 -55.60965 13.94399 -102.58617 5.35518 -5.69815 23.36168 3.73606 -17.06074 -17.44781 -6.4482 -2.23344 -3.32255 42.41179 14.48832 9.56366 -24.07407 -9.46405 1.94507 3.32219
0.14752 0.00805 0.35059 29.11818 -13.48055 -2.15426 34.32855 2.74595 -12.43326 -11.32475 -0.86806 -2.11993 3.67162 -25.98783 21.22558 115.52121 120.73775 27.20345 3.18847 132.79562 47.4822 -55.64355 15.01972 -105.44656 8.75732 -5.37024 23.2081 3.77429 -17.07873 -17.57141 -6.43751 -2.28279 -3.34802 42.28916 14.16253 9.48469 -23.56179 -9.46816 1.89919 3.30029
0.14849 0.00778 0.34861 29.8205 -13.42089 -2.39574 34.36001 2.84646 -12.83638 -11.68257 -0.51731 -2.11993 2.3622 -26.72822 20.76147 115.93017 120.10101 27.49307 3.01663 126.17165 49.12068 -55.63167 16.27051 -108.00951 12.7478 -4.50973 23.06557 3.86712 -16.98 -17.72514 -6.42727 -2.35776 -3.38574 42.17497 13.83883 9.22485 -23.1434 -9.50155 1.8368 3.27175
0.14945 0.00754 0.34676 30.46752 -13.35816 -2.60224 34.38088 2.94418 -13.22434 -12.02162 -0.15255 -2.11993 1.02292 -27.41076 20.24731 116.33454 119.83576 27.90265 2.89977 119.97135 51.00344 -55.5562 17.62877 -110.60056 16.42197 -3.90832 22.91705 3.92752 -16.95622 -17.86458 -6.41661 -2.41968 -3.41703 42.05922 13.51262 9.04952 -22.68771 -9.52262 1.78336 3.24695
0.1505 0.00725 0.34497 31.08862 -13.29296 -2.82262 34.42873 3.06174 -13.63124 -12.41859 0.31227 -2.11993 -0.42665 -28.11285 19.68461 116.76891 119.74969 28.40085 2.80238 113.91361 53.13022 -55.82074 18.23338 -113.66239 20.33361 -3.23963 22.76973 4.019 -16.84827 -18.00813 -6.40648 -2.48744 -3.45187 41.93012 13.19098 8.86744 -22.20223 -9.54001 1.72439 3.21938
0.15136 0.00705 0.34297 31.79323 -13.23629 -3.03049 34.42279 3.13683 -14.00197 -12.69747 0.54812 -2.11993 -1.6145 -28.7976 19.25608 117.13877 119.09014 28.6453 2.63584 107.37961 54.57491 -55.38666 20.41549 -115.66547 23.87148 -2.58279 22.62478 4.0599 -16.88246 -18.14946 -6.39566 -2.54937 -3.48238 41.83356 12.86136 8.65531 -21.80448 -9.57163 1.67275 3.19586
0.15172 0.0071 0.34041 32.69831 -13.18935 -3.18202 34.26455 3.09735 -14.27351 -12.64662 0.17985 -2.11993 -2.13014 -29.44116 19.15591 117.33303 116.77108 28.16611 2.26596 99.29454 54.43088 -52.85832 27.15044 -114.81595 26.31623 -2.08796 22.46965 3.93798 -17.36515 -18.27979 -6.38071 -2.58608 -3.49627 41.80822 12.50651 8.40524 -21.61788 -9.63771 1.64617 3.18565
0.15188 0.00723 0.33764 33.67959 -13.15314 -3.31886 34.05229 3.01505 -14.50495 -12.47683 -0.41681 -2.11993 -2.38223 -30.05549 19.18797 117.46162 113.94836 27.45463 1.83763 90.864 53.5981 -49.66097 35.41411 -112.90557 28.34357 -1.62238 22.31935 3.76504 -17.98859 -18.40612 -6.36544 -2.61647 -3.50563 41.81838 12.1447 8.13126 -21.51864 -9.71656 1.62737 3.17963
0.15212 0.00734 0.33497 34.62383 -13.12 -3.46523 33.86568 2.95115 -14.75003 -12.36161 -0.91516 -2.11993 -2.74128 -30.66003 19.1651 117.61955 111.54809 26.91386 1.46435 82.91631 52.98976 -46.88608 42.82681 -111.48369 30.50719 -1.14412 22.1763 3.622 -18.52921 -18.53251 -6.35178 -2.65171 -3.51818 41.82391 11.78757 7.86646 -21.38577 -9.78804 1.6044 3.17133
0.15239 0.00742 0.33227 35.58822 -13.05341 -3.6027 33.67431 2.89125 -15.01814 -12.24359 -1.3963 -2.11993 -3.15096 -31.36872 19.12424 117.78101 108.32003 26.0989 0.96821 73.5491 52.72749 -43.61142 50.93099 -110.03852 32.92637 -0.64711 21.99384 3.45283 -19.14696 -18.66763 -6.33206 -2.67984 -3.52654 41.7826 11.42244 7.59983 -21.23085 -9.86737 1.58341 3.16435
0.15256 0.00756 0.32958 36.52064 -13.05913 -3.75349 33.48045 2.8133 -15.22508 -12.10429 -1.9626 -2.11993 -3.39324 -31.84882 19.15163 117.91765 106.68334 25.78985 0.71351 67.07879 51.5958 -41.21718 57.92359 -108.37656 34.69493 -0.20008 21.89435 3.32487 -19.63711 -18.78294 -6.32472 -2.72048 -3.54218 41.84535 11.07433 7.33704 -21.14086 -9.93273 1.56053 3.15576
0.1525 0.00783 0.327 37.39873 -13.26044 -3.95074 33.28831 2.69259 -15.30076 -11.92405 -2.74049 -2.11993 -3.24697 -31.73039 19.32417 118.01831 109.78043 27.0561 1.15926 68.62403 48.18319 -41.43796 61.74846 -106.53111 34.86193 0.08929 22.02368 3.32553 -19.75775 -18.8466 -6.35297 -2.801 -3.58084 42.20232 10.75698 7.06197 -21.21387 -9.95836 1.52934 3.14121
0.15237 0.00816 0.32441 38.23144 -13.53434 -4.16015 33.09641 2.55582 -15.31097 -11.72843 -3.58938 -2.11993 -2.94095 -31.37718 19.56164 118.09321 114.46145 28.81928 1.84681 73.11156 43.93527 -42.56444 64.35207 -104.48243 34.36791 0.33228 22.23595 3.36825 -19.74309 -18.88991 -6.3934 -2.89345 -3.62656 42.65977 10.45993 6.7973 -21.3481 -9.96889 1.49638 3.12507
0.15229 0.00847 0.3218 39.04982 -13.77602 -4.35998 32.90731 2.42867 -15.33268 -11.54735 -4.38462 -2.11993 -2.70167 -31.1146 19.77663 118.16906 118.27852 30.2755 2.41176 76.30622 40.10054 -43.26309 67.32977 -102.41866 34.11288 0.61068 22.4098 3.39048 -19.77886 -18.94101 -6.42742 -2.97791 -3.66786 43.06105 10.16586 6.54836 -21.45015 -9.98497 1.46493 3.10996
0.15212 0.00874 0.31933 40.01877 -14.01508 -4.57749 32.70383 2.2903 -15.42988 -11.33074 -5.27966 -2.11993 -2.47481 -30.92048 19.969 118.28794 122.68158 32.06187 3.02905 79.31418 36.08517 -44.00639 71.11412 -100.7469 34.10399 0.82555 22.58755 3.41867 -19.86365 -18.99815 -6.46525 -3.07322 -3.71425 43.50822 9.82168 6.21444 -21.57252 -10.00735 1.43031 3.0935
0.15213 0.00911 0.31654 40.662 -14.27639 -4.75993 32.53135 2.17193 -15.35506 -11.18541 -5.97885 -2.11993 -2.19142 -30.52643 20.21922 118.31206 126.25235 33.28677 3.59452 83.39811 32.27482 -44.88112 72.92173 -98.25486 33.4295 1.16498 22.77597 3.44271 -19.81552 -19.03791 -6.49787 -3.14855 -3.75161 43.88287 9.58469 6.05739 -21.66745 -10.01247 1.40236 3.07966
0.15267 0.0097 0.31301 40.41889 -14.58387 -4.85381 32.44248 2.11409 -14.81988 -11.2468 -6.13424 -2.11993 -1.75984 -29.65546 20.63815 118.0803 127.08728 32.79472 3.96567 89.87302 29.08653 -45.8934 69.44753 -93.29108 31.09357 1.82929 22.9807 3.46593 -19.40346 -19.03478 -6.51469 -3.16856 -3.76394 44.03516 9.65628 6.4102 -21.658 -9.97692 1.38845 3.07137
0.15341 0.01038 0.30914 39.84905 -14.91071 -4.90999 32.38568 2.07702 -14.11478 -11.37995 -6.0861 -2.11993 -1.28414 -28.58923 21.10805 117.75472 127.03702 31.72855 4.27445 97.30156 26.1661 -47.0093 64.04286 -87.56272 28.11226 2.62304 23.19191 3.48008 -18.86554 -19.01488 -6.52564 -3.16771 -3.76675 44.11031 9.8314 6.9351 -21.62083 -9.9239 1.38226 3.0662
0.15405 0.01103 0.30536 39.4267 -15.22698 -4.976 32.31537 2.02954 -13.48796 -11.47679 -6.12069 -2.11993 -0.85033 -27.59963 21.53724 117.47248 127.43367 30.95782 4.60772 104.20806 23.22211 -48.08548 59.59231 -82.35709 25.41574 3.38172 23.39546 3.48463 -18.40635 -19.00256 -6.53813 -3.17439 -3.77276 44.21906 9.94819 7.36713 -21.60491 -9.87656 1.37554 3.06088
0.1547 0.01166 0.30187 39.00581 -15.55322 -5.07298 32.23943 1.98498 -12.8524 -11.58847 -6.19963 -2.11993 -0.31823 -26.64877 22.04158 117.18537 127.71687 30.06466 4.96846 111.60534 19.82812 -49.16774 54.76916 -76.40098 22.72204 4.05194 23.62192 3.54767 -17.85849 -18.9896 -6.55543 -3.18905 -3.7834 44.33772 10.11504 7.86632 -21.55491 -9.83797 1.35587 3.04992
0.15539 0.01235 0.29768 38.50639 -15.86238 -5.0967 32.18422 1.94021 -12.19804 -11.68671 -6.13629 -2.11993 0.01709 -25.57916 22.40222 116.88766 127.98048 29.27599 5.25051 118.15094 17.45344 -50.24267 50.28779 -71.83271 19.89013 4.92088 23.80099 3.48729 -17.45859 -18.97439 -6.56165 -3.18284 -3.78252 44.41582 10.19978 8.26018 -21.56815 -9.77753 1.36545 3.05172
0.15613 0.01314 0.29173 37.8571 -16.11877 -4.92439 32.16688 1.88366 -11.51244 -11.72886 -5.73468 -2.11993 -0.19973 -24.18589 22.33892 116.57402 128.62639 28.98598 5.36106 122.24517 17.76937 -51.33518 47.1541 -71.26115 16.73828 6.45339 23.84775 3.07814 -17.57453 -18.956 -6.53433 -3.11634 -3.74799 44.40242 10.05122 8.37667 -21.76567 -9.65826 1.44997 3.08566
0.15693 0.01397 0.28508 37.14281 -16.35694 -4.68021 32.17152 1.82731 -10.81808 -11.75544 -5.19591 -2.11993 -0.61746 -22.68941 22.13124 116.2551 129.2425 28.80929 5.38881 125.4074 19.11615 -52.40171 44.45029 -72.12037 13.49462 8.1554 23.84586 2.54654 -17.83197 -18.9362 -6.49675 -3.03079 -3.70287 44.34986 9.81324 8.3726 -22.02695 -9.51813 1.56422 3.13267
